<svg xmlns="http://www.w3.org/2000/svg" xmlns:svg="http://www.w3.org/2000/svg" id="svg8" width="1024" height="256" version="1.1" viewBox="0 0 270.933 67.733"><defs id="defs2"><clipPath id="clipPath936" clipPathUnits="userSpaceOnUse"><path id="path934" d="M 0,768 H 1366 V 0 H 0 Z"/></clipPath><clipPath id="clipPath916" clipPathUnits="userSpaceOnUse"><path id="path914" d="M 0,768 H 1366 V 0 H 0 Z"/></clipPath><clipPath id="clipPath1666" clipPathUnits="userSpaceOnUse"><path id="path1664" d="M 0,768 H 1366 V 0 H 0 Z"/></clipPath><clipPath id="clipPath1646" clipPathUnits="userSpaceOnUse"><path id="path1644" d="M 0,768 H 1366 V 0 H 0 Z"/></clipPath><clipPath id="clipPath2367" clipPathUnits="userSpaceOnUse"><path id="path2365" d="M 0,768 H 1366 V 0 H 0 Z"/></clipPath></defs><metadata id="metadata5"/><g id="layer2"><rect style="opacity:1;fill:#fff;fill-opacity:0;stroke:none;stroke-width:6.44724178;stroke-linecap:round;stroke-linejoin:round;stroke-miterlimit:4;stroke-dasharray:none;stroke-opacity:1;paint-order:markers stroke fill" id="rect2447" width="270.933" height="67.733" x="0" y="0"/></g><g id="layer1" transform="translate(0,-229.2666)"><g id="g866" transform="matrix(0.88596096,0,0,-0.9053022,191.21719,291.65454)"><g id="g868" transform="scale(0.1)"><path id="path870" style="fill:#302a83;fill-opacity:1;fill-rule:nonzero;stroke:none" d="m 647.656,593.406 c 0,-7.039 0,-100.019 0,-107.058 6.992,0 75.215,0 75.215,0 l -83.98,-312.547 c 0,0 -102.793,413.765 -104.235,419.605 -5.597,0 -103.172,0 -108.726,0 -1.535,-5.691 -112.707,-419.605 -112.707,-419.605 l -77.371,312.547 c 0,0 71.336,0 78.328,0 0,7.039 0,100.019 0,107.058 -7.469,0 -306.66437,0 -314.18,0 0,-7.039 0,-100.019 0,-107.058 6.94531,0 69.6133,0 69.6133,0 0,0 120.1287,-480.50816 121.6137,-486.348 5.746,0 162.933,0 168.628,0 1.485,5.69141 80.536,306.047 80.536,306.047 0,0 75.07,-300.25403 76.507,-306.047 5.743,0 162.926,0 168.629,0 1.536,5.74219 127.93,486.348 127.93,486.348 0,0 62.102,0 69.043,0 0,7.039 0,100.019 0,107.058 -7.422,0 -227.422,0 -234.844,0"/><path id="path872" style="fill:#302a83;fill-opacity:1;fill-rule:nonzero;stroke:none" d="m 758.398,4.69531 c -9.433,0 -17.089,7.60939 -17.089,17.04299 0,9.4805 7.656,17.1406 17.089,17.1406 9.434,0 17.09,-7.6601 17.09,-17.1406 0,-9.4336 -7.656,-17.04299 -17.09,-17.04299 z m 0,38.82809 c -12.019,0 -21.789,-9.7226 -21.789,-21.7851 C 736.609,9.71875 746.379,0 758.398,0 c 12.012,0 21.79,9.71875 21.79,21.7383 0,12.0625 -9.778,21.7851 -21.79,21.7851"/><path id="path874" style="fill:#302a83;fill-opacity:1;fill-rule:nonzero;stroke:none" d="m 759.934,24.082 h -5.793 v 5.461 h 5.793 c 1.531,0 2.722,-1.1953 2.722,-2.7383 0,-1.4727 -1.191,-2.7227 -2.722,-2.7227 z m 7.421,2.7227 c 0,4.0742 -3.312,7.3828 -7.421,7.3828 H 749.441 V 9.33594 h 4.7 V 19.4414 h 3.347 L 762.18,9.33594 h 5.175 l -4.933,10.53516 c 2.871,1.0078 4.933,3.7305 4.933,6.9336"/></g></g><flowRoot id="flowRoot2304" transform="matrix(0.26458333,0,0,0.26458333,0,229.2666)" xml:space="preserve" style="font-style:normal;font-variant:normal;font-weight:900;font-stretch:normal;font-size:16px;line-height:3.77952766px;font-family:'Encode Sans Black';-inkscape-font-specification:'Encode Sans Black, Heavy';font-variant-ligatures:normal;font-variant-caps:normal;font-variant-numeric:normal;font-feature-settings:normal;text-align:start;letter-spacing:0;word-spacing:0;writing-mode:lr-tb;text-anchor:start;fill:#000;fill-opacity:1;stroke:none"><flowRegion id="flowRegion2306"><rect id="rect2308" width="427.295" height="391.939" x="108.086" y="-48.056"/></flowRegion><flowPara id="flowPara2310"/></flowRoot><g id="g2339" transform="matrix(0.35277778,0,0,-0.35277778,-125.45595,420.52558)"><g id="g2416" transform="matrix(0.71444334,0,0,0.71444334,81.168507,166.82384)"><path d="M 969.215,284.147 H 398.437 v 200 h 570.778 z" style="fill:#4a2f80;fill-opacity:1;fill-rule:nonzero;stroke:none" id="path2341"/><g id="g2343" transform="translate(409.1479,286.5117)"><path d="m 0,0 388.625,195.271 h 164.34 V 0 Z" style="fill:#fff;fill-opacity:1;fill-rule:nonzero;stroke:none" id="path2345"/></g><g id="g2347" transform="translate(797.6553,482.2822)"><path d="M 0,0 H -27.293 Z M 164.958,0 H 0 l -390.616,-196.271 h 555.574 z m -1,-1 V -195.271 H -386.398 L 0.237,-1 Z" style="fill:#000;fill-opacity:1;fill-rule:nonzero;stroke:none" id="path2349"/></g><path d="M 967.842,284.147 H 399.81 v 200 h 568.032 z" style="fill:none;stroke:#b6a47e;stroke-width:13;stroke-linecap:butt;stroke-linejoin:miter;stroke-miterlimit:10;stroke-dasharray:none;stroke-opacity:1" id="path2351"/><text transform="matrix(1,0,0,-1,487.1523,329.7583)" style="font-variant:normal;font-weight:900;font-stretch:normal;font-size:135px;font-family:'Encode Sans Normal';-inkscape-font-specification:EncodeSansNormal-Black;writing-mode:lr-tb;fill:#847551;fill-opacity:1;fill-rule:nonzero;stroke:#d8d8d7;stroke-width:6;stroke-miterlimit:4;stroke-dasharray:none;stroke-opacity:1" id="text2355"><tspan style="font-style:normal;font-variant:normal;font-weight:700;font-stretch:normal;font-family:'Encode Sans Black';-inkscape-font-specification:'Encode Sans Black, Bold'" id="tspan2353" x="0 92.34 186.03 291.33" y="0">EPAR</tspan></text></g></g><text xml:space="preserve" style="font-style:normal;font-variant:normal;font-weight:900;font-stretch:normal;font-size:4.23333311px;line-height:1.00000012px;font-family:'Encode Sans Black';-inkscape-font-specification:'Encode Sans Black, Heavy';font-variant-ligatures:normal;font-variant-caps:normal;font-variant-numeric:normal;font-feature-settings:normal;text-align:start;letter-spacing:0;word-spacing:0;writing-mode:lr-tb;text-anchor:start;fill:#555;fill-opacity:1;stroke:none;stroke-width:.26458332" id="text2420" x="152.076" y="276.955"><tspan id="tspan2418" x="152.076" y="276.955" style="font-style:normal;font-variant:normal;font-weight:700;font-stretch:normal;font-size:39.51111221px;font-family:'Encode Sans Black';-inkscape-font-specification:'Encode Sans Black, Bold';fill:#555;fill-opacity:1;stroke-width:.26458332">@</tspan></text></g></svg>