<svg xmlns="http://www.w3.org/2000/svg" xmlns:svg="http://www.w3.org/2000/svg" id="svg891" width="128" height="128" version="1.1" viewBox="0 0 33.867 33.867"><metadata id="metadata888"/><g id="layer1" transform="translate(-70.834692,-188.0374)"><g id="layer6"><rect style="opacity:1;fill:#000;fill-opacity:0;stroke:none;stroke-width:5.87736845;stroke-linecap:round;stroke-linejoin:round;stroke-miterlimit:4;stroke-dasharray:none;stroke-opacity:.72881356;paint-order:markers stroke fill" id="rect1476" width="33.867" height="33.867" x="70.835" y="188.037"/></g><g id="g5288" transform="matrix(4.2515915,0,0,4.2515915,71.332769,186.39743)"><g id="g861" transform="matrix(0.92515344,0,0,0.92515344,0.34563372,0.35860492)"><g id="layer1-0" transform="translate(0,-288.53333)"><path id="path1933-5-8" style="fill:#4b2e83;fill-opacity:1;stroke:none;stroke-width:.26458332;stroke-linecap:butt;stroke-linejoin:miter;stroke-miterlimit:4;stroke-dasharray:none;stroke-opacity:1" d="m 4.3016298,288.68098 c 0.2938069,-0.01 0.9062829,0.30565 1.121453,1.3456 0.1704765,1.19234 0.5824101,3.64561 0.5824101,4.70394 0,0.52917 0,1.58748 -1.8318394,1.60542 -1.8318393,0.0179 -1.8318393,-1.04037 -1.8318393,-1.56954 0,-1.05833 0.6197587,-3.52331 0.7902352,-4.71565 0.2027479,-0.75235 0.6138894,-1.36166 1.1695804,-1.36977 z"/></g><g style="stroke-width:.13384268;stroke-miterlimit:4;stroke-dasharray:none" id="layer3"><g id="g5771" style="fill:none;stroke:#fff;stroke-width:.13384268;stroke-miterlimit:4;stroke-dasharray:none;stroke-opacity:.94117647" transform="translate(0.02342484,0.02342484)"><circle id="path5712" cx="4.246" cy=".953" r=".275" style="opacity:1;fill:none;fill-opacity:1;stroke:#fff;stroke-width:.13384268;stroke-linecap:square;stroke-linejoin:miter;stroke-miterlimit:4;stroke-dasharray:none;stroke-opacity:.94117647;paint-order:markers stroke fill"/><path id="path5729" d="m 4.2533916,1.2662644 0.011693,6.4015239" style="fill:none;fill-opacity:0;stroke:#fff;stroke-width:.13384268;stroke-linecap:butt;stroke-linejoin:miter;stroke-miterlimit:4;stroke-dasharray:none;stroke-opacity:.94117647"/><path id="path5731" d="M 4.277292,4.0196499 3.4368596,3.4471143 V 2.358446" style="fill:none;stroke:#fff;stroke-width:.13384268;stroke-linecap:butt;stroke-linejoin:miter;stroke-miterlimit:4;stroke-dasharray:none;stroke-opacity:.94117647"/><path id="path5733" d="M 4.1338892,4.8014496 5.01002,4.2722829 v -1.52256" style="fill:none;stroke:#fff;stroke-width:.13384268;stroke-linecap:butt;stroke-linejoin:miter;stroke-miterlimit:4;stroke-dasharray:none;stroke-opacity:.94117647"/><circle id="path5712-3" cx="3.456" cy="2.022" r=".3" style="opacity:1;fill:none;fill-opacity:1;stroke:#fff;stroke-width:.13384268;stroke-linecap:square;stroke-linejoin:miter;stroke-miterlimit:4;stroke-dasharray:none;stroke-opacity:.94117647;paint-order:markers stroke fill"/><circle id="path5712-3-1" cx="5.01" cy="2.445" r=".255" style="opacity:1;fill:none;fill-opacity:1;stroke:#fff;stroke-width:.13384268;stroke-linecap:square;stroke-linejoin:miter;stroke-miterlimit:4;stroke-dasharray:none;stroke-opacity:.94117647;paint-order:markers stroke fill"/></g></g><g id="layer4" style="display:inline"><path style="fill:#85754d;fill-opacity:1;stroke:#fff;stroke-width:.13384268;stroke-linecap:butt;stroke-linejoin:miter;stroke-miterlimit:4;stroke-dasharray:none;stroke-opacity:1" id="path5773" d="M 5.8636087,7.0090463 C 5.8119659,7.4024928 5.8493652,7.6147361 5.2648849,7.7402798 5.0957995,7.7765985 5.2026582,8.3474174 5.0105697,8.3590016 4.9113165,8.3518593 3.5828459,8.3902742 3.4653695,8.3743815 3.3378538,8.3571306 3.3766591,7.7629875 3.240752,7.7342425 2.6632317,7.6120944 2.3695628,7.4137336 2.2858136,7.0256103 1.8662912,5.4400224 3.2833808,2.049309 0.47207018,3.091692 3.6211681,-0.21895868 3.8324395,5.8592548 5.8636087,7.0090463 Z"/></g><path style="display:inline;fill:#85754d;fill-opacity:1;stroke:#fff;stroke-width:.13384268;stroke-linecap:butt;stroke-linejoin:miter;stroke-miterlimit:4;stroke-dasharray:none;stroke-opacity:1" id="path5773-8" d="M 2.3163393,7.0256098 C 2.3829223,7.5328774 3.0586683,7.8353032 3.9147527,7.8869312 4.5795489,7.8390921 5.6310919,8.1109777 6.1171115,7.0090463 6.4576223,5.7040054 5.23085,2.8760832 6.8102842,1.3708574 4.1856922,2.6440667 5.0922491,6.2118171 2.3163393,7.0256098 Z"/></g></g></g></svg>